<?xml version="1.0" standalone="no"?>
<!DOCTYPE svg PUBLIC "-//W3C//DTD SVG 20010904//EN"
 "http://www.w3.org/TR/2001/REC-SVG-20010904/DTD/svg10.dtd">
<svg version="1.0" xmlns="http://www.w3.org/2000/svg"
 width="260.000000pt" height="260.000000pt" viewBox="0 0 260.000000 260.000000"
 preserveAspectRatio="xMidYMid meet">
<metadata>
Created by potrace 1.14, written by Peter Selinger 2001-2017
</metadata>
<g transform="translate(0.000000,260.000000) scale(0.100000,-0.100000)"
fill="#000000" stroke="none">
<path d="M52 2590 c2 -5 30 -38 64 -72 33 -35 99 -110 147 -168 47 -58 104
-123 127 -144 22 -22 40 -43 40 -46 0 -4 14 -25 30 -46 17 -22 38 -49 48 -62
9 -12 24 -30 33 -40 52 -57 109 -131 109 -140 0 -6 8 -17 18 -24 28 -20 112
-127 112 -142 0 -8 39 -54 88 -102 110 -113 185 -198 203 -231 8 -15 27 -40
42 -56 16 -17 44 -55 64 -86 20 -31 44 -63 52 -73 9 -9 24 -27 34 -40 9 -12
28 -37 42 -54 14 -18 25 -36 25 -40 0 -5 17 -26 38 -46 20 -20 51 -56 67 -79
17 -23 66 -87 111 -143 44 -55 84 -108 90 -117 5 -9 30 -41 56 -70 61 -70 95
-118 109 -151 6 -16 15 -28 20 -28 5 0 14 -10 19 -22 6 -13 26 -43 45 -68 19
-25 39 -54 44 -65 5 -12 16 -27 25 -34 9 -7 16 -22 16 -32 0 -10 4 -21 10 -24
17 -11 80 -112 80 -129 0 -14 24 -16 245 -16 265 0 266 0 225 53 -11 14 -20
29 -20 34 0 4 -18 33 -40 63 -22 30 -44 64 -49 75 -5 12 -16 27 -25 34 -9 7
-16 22 -16 31 0 10 -9 29 -20 42 -50 60 -70 87 -70 95 0 6 -9 18 -20 28 -11
10 -20 22 -20 26 0 9 -39 69 -68 106 -42 54 -54 71 -85 118 -17 27 -39 57 -47
66 -40 44 -97 115 -115 143 -64 101 -90 137 -151 209 -33 38 -81 99 -109 137
-46 63 -163 205 -238 290 -52 58 -127 152 -127 159 0 3 -20 29 -45 56 -56 62
-58 64 -123 145 -105 130 -118 145 -160 191 -24 25 -57 69 -75 96 -35 54 -44
65 -104 132 -22 25 -64 73 -93 106 -28 33 -69 79 -91 102 -21 23 -39 46 -39
52 0 8 -82 11 -266 11 -167 0 -264 -4 -262 -10z"/>
<path d="M908 2569 c3 -20 12 -33 23 -36 10 -3 21 -14 24 -24 4 -10 12 -19 20
-19 8 0 17 -9 20 -20 3 -11 15 -25 26 -30 10 -6 19 -17 19 -25 0 -7 8 -16 18
-19 9 -4 24 -21 32 -39 8 -17 21 -31 29 -29 7 1 11 -3 8 -10 -6 -18 11 -48 28
-48 8 0 15 -9 15 -20 0 -11 7 -20 15 -20 9 0 18 -8 22 -17 6 -17 22 -38 71
-87 12 -13 22 -28 22 -34 0 -6 9 -16 20 -22 11 -6 20 -17 20 -25 0 -8 9 -19
20 -25 11 -6 20 -15 20 -20 0 -9 36 -51 108 -127 12 -13 22 -30 22 -38 0 -8 9
-19 20 -25 11 -6 20 -17 20 -26 0 -8 6 -17 13 -20 7 -2 41 -40 77 -84 35 -44
67 -80 72 -80 4 0 8 -9 8 -21 0 -12 8 -23 20 -26 11 -3 20 -11 20 -17 0 -7 10
-22 23 -34 12 -11 37 -37 55 -56 19 -20 38 -36 43 -36 5 0 9 -6 9 -13 0 -8 11
-24 25 -37 13 -12 24 -25 23 -29 -3 -24 4 -41 16 -41 8 0 17 -8 20 -17 4 -10
24 -37 45 -60 22 -23 42 -51 46 -62 3 -10 12 -22 20 -25 8 -3 15 -11 15 -18 0
-8 12 -25 28 -40 50 -48 62 -65 62 -83 0 -10 10 -28 23 -41 59 -61 67 -70 67
-80 0 -6 9 -19 20 -29 11 -10 20 -24 20 -31 0 -7 8 -19 19 -26 10 -7 21 -23
25 -36 4 -12 16 -27 27 -32 10 -6 19 -15 19 -21 0 -13 35 -60 83 -113 20 -22
37 -50 37 -62 0 -11 11 -30 25 -42 14 -12 25 -31 25 -42 0 -11 5 -20 10 -20 6
0 10 123 10 349 0 347 0 349 -21 354 -16 4 -20 11 -16 26 3 12 -1 22 -9 25 -8
3 -14 16 -14 30 0 16 -7 27 -20 31 -11 3 -20 12 -20 20 0 7 -11 20 -25 29 -14
9 -25 23 -25 31 0 8 -9 20 -20 27 -11 7 -20 18 -20 25 0 6 -8 18 -19 25 -10 7
-22 24 -26 38 -4 14 -25 46 -46 71 -22 26 -39 52 -39 58 0 5 -9 15 -20 21 -11
6 -20 19 -20 29 0 10 -9 26 -20 36 -11 10 -20 26 -20 37 0 10 -4 18 -9 18 -11
0 -81 69 -81 80 0 4 -10 18 -22 32 -68 75 -98 110 -98 116 0 9 -65 72 -73 72
-9 0 -57 50 -57 59 0 4 -29 35 -65 68 -36 33 -65 64 -65 70 0 5 -10 20 -22 33
-13 14 -23 29 -23 34 0 5 -9 14 -19 20 -10 6 -49 42 -85 80 -36 38 -75 79 -87
90 -11 12 -23 29 -27 39 -3 9 -13 17 -21 17 -7 0 -16 9 -19 20 -3 11 -12 20
-21 20 -10 0 -19 11 -22 30 l-6 30 -238 0 -237 0 5 -31z"/>
<path d="M1670 2584 c0 -17 92 -133 116 -147 8 -4 14 -12 14 -16 0 -5 57 -67
128 -139 228 -232 422 -454 422 -483 0 -5 8 -17 18 -27 35 -36 112 -129 112
-137 0 -11 62 -105 70 -105 4 0 12 -11 18 -25 6 -14 16 -25 22 -25 7 0 10 174
10 524 0 508 -1 524 -20 549 -11 14 -20 30 -20 36 0 6 -16 11 -35 11 -28 0
-33 -3 -29 -17 5 -17 5 -17 -9 0 -13 16 -45 17 -416 17 -361 0 -401 -2 -401
-16z"/>
<path d="M0 2127 l0 -194 25 -11 c14 -6 25 -16 25 -22 0 -6 23 -34 50 -63 79
-82 80 -83 80 -91 0 -5 29 -42 63 -85 35 -42 105 -128 155 -191 50 -63 97
-122 105 -132 8 -9 18 -25 22 -37 3 -12 10 -21 15 -21 7 0 28 -30 66 -92 6
-10 17 -26 25 -35 9 -10 20 -30 27 -46 6 -15 16 -27 22 -27 5 0 10 -6 10 -12
0 -7 30 -44 65 -83 36 -38 68 -80 71 -92 3 -13 10 -23 15 -23 5 0 12 -8 16
-17 3 -10 14 -27 24 -38 42 -45 69 -84 69 -98 0 -9 6 -20 14 -24 16 -9 66 -79
66 -93 0 -4 9 -19 20 -32 50 -60 70 -87 70 -95 0 -6 9 -18 20 -28 11 -10 20
-22 20 -28 0 -5 11 -22 25 -39 14 -16 25 -39 25 -50 0 -11 9 -31 20 -45 11
-14 20 -32 20 -39 0 -7 9 -18 20 -24 11 -6 20 -17 20 -24 0 -8 7 -19 15 -26 8
-7 20 -30 26 -51 7 -21 23 -48 35 -60 13 -13 24 -31 24 -41 0 -17 13 -18 195
-18 186 0 195 1 195 19 0 11 -11 33 -25 49 -14 17 -25 32 -25 35 0 4 -11 23
-25 44 -14 21 -31 47 -38 57 -6 10 -21 31 -32 45 -12 14 -26 38 -33 54 -6 15
-16 27 -21 27 -5 0 -12 10 -15 23 -5 19 -33 53 -111 138 -8 9 -15 20 -15 24 0
5 -9 18 -20 30 -25 24 -139 170 -162 205 -13 22 -98 122 -143 171 -8 9 -15 19
-15 23 0 5 -19 31 -42 59 -24 28 -47 58 -53 67 -25 41 -52 80 -82 116 -66 79
-83 102 -83 112 0 6 -6 15 -14 19 -7 4 -40 40 -72 78 -32 39 -62 73 -67 76 -5
4 -14 15 -20 26 -25 43 -67 100 -99 134 -33 36 -39 44 -78 104 -39 59 -46 68
-85 111 -41 44 -53 59 -95 120 -14 20 -52 64 -86 98 -33 33 -76 86 -97 116
-37 57 -109 140 -120 140 -4 0 -7 -87 -7 -193z"/>
<path d="M0 790 l0 -790 550 0 550 0 0 24 c0 14 -6 31 -13 38 -13 13 -75 117
-111 186 -11 20 -26 43 -33 50 -7 7 -13 22 -13 33 0 11 -20 45 -45 76 -25 30
-45 60 -45 67 0 7 -9 21 -20 31 -11 10 -20 23 -20 29 0 6 -14 25 -31 41 -17
17 -47 55 -67 85 -20 30 -61 86 -91 124 -31 38 -60 77 -66 86 -19 32 -49 75
-85 120 -40 51 -53 71 -77 118 -9 17 -20 32 -23 32 -4 0 -22 24 -40 53 -19 28
-65 90 -102 137 -38 47 -77 95 -86 107 -9 13 -27 34 -39 48 -12 13 -34 40 -49
60 -14 19 -30 35 -35 35 -5 0 -9 -341 -9 -790z"/>
</g>
</svg>
